<svg width="274" height="91" viewBox="0 0 274 91" fill="none" xmlns="http://www.w3.org/2000/svg">
<path d="M88.8145 22.6364H90.6015L94.8032 32.8991H94.9481L99.1498 22.6364H100.937V35H99.5361V25.6065H99.4154L95.5518 35H94.1995L90.3358 25.6065H90.2151V35H88.8145V22.6364ZM106.474 35.2173C105.886 35.2173 105.353 35.1067 104.874 34.8853C104.395 34.6599 104.015 34.3359 103.733 33.9134C103.452 33.4867 103.311 32.9716 103.311 32.3679C103.311 31.8366 103.415 31.406 103.625 31.076C103.834 30.742 104.114 30.4804 104.464 30.2912C104.814 30.102 105.2 29.9612 105.623 29.8686C106.049 29.772 106.478 29.6955 106.909 29.6392C107.472 29.5668 107.929 29.5124 108.279 29.4762C108.633 29.436 108.891 29.3696 109.052 29.277C109.217 29.1844 109.299 29.0234 109.299 28.794V28.7457C109.299 28.1501 109.136 27.6873 108.81 27.3572C108.488 27.0272 107.999 26.8622 107.343 26.8622C106.663 26.8622 106.13 27.0111 105.744 27.3089C105.357 27.6068 105.086 27.9247 104.929 28.2628L103.576 27.7798C103.818 27.2164 104.14 26.7777 104.542 26.4638C104.949 26.1458 105.391 25.9245 105.87 25.7997C106.353 25.6709 106.828 25.6065 107.295 25.6065C107.593 25.6065 107.935 25.6428 108.321 25.7152C108.712 25.7836 109.088 25.9265 109.45 26.1438C109.817 26.3612 110.12 26.6892 110.362 27.1278C110.603 27.5665 110.724 28.1541 110.724 28.8906V35H109.299V33.7443H109.227C109.13 33.9455 108.969 34.1609 108.744 34.3903C108.519 34.6197 108.219 34.8149 107.844 34.9759C107.47 35.1368 107.013 35.2173 106.474 35.2173ZM106.691 33.9375C107.255 33.9375 107.73 33.8268 108.116 33.6055C108.507 33.3841 108.8 33.0984 108.998 32.7482C109.199 32.3981 109.299 32.0298 109.299 31.6435V30.3395C109.239 30.4119 109.106 30.4783 108.901 30.5387C108.7 30.5951 108.466 30.6454 108.201 30.6896C107.939 30.7299 107.683 30.7661 107.434 30.7983C107.188 30.8265 106.989 30.8506 106.836 30.8707C106.466 30.919 106.12 30.9975 105.798 31.1062C105.48 31.2108 105.222 31.3698 105.025 31.5831C104.832 31.7924 104.735 32.0781 104.735 32.4403C104.735 32.9354 104.919 33.3097 105.285 33.5632C105.655 33.8127 106.124 33.9375 106.691 33.9375ZM114.749 29.4219V35H113.324V25.7273H114.701V27.1761H114.822C115.039 26.7053 115.369 26.3269 115.812 26.0412C116.254 25.7514 116.826 25.6065 117.526 25.6065C118.154 25.6065 118.703 25.7353 119.174 25.9929C119.645 26.2464 120.011 26.6328 120.273 27.152C120.535 27.6671 120.665 28.3191 120.665 29.108V35H119.241V29.2045C119.241 28.4761 119.052 27.9086 118.673 27.5021C118.295 27.0916 117.776 26.8864 117.116 26.8864C116.661 26.8864 116.254 26.985 115.896 27.1822C115.542 27.3794 115.262 27.6671 115.057 28.0455C114.852 28.4238 114.749 28.8826 114.749 29.4219ZM125.998 35.2173C125.41 35.2173 124.877 35.1067 124.398 34.8853C123.919 34.6599 123.538 34.3359 123.257 33.9134C122.975 33.4867 122.834 32.9716 122.834 32.3679C122.834 31.8366 122.939 31.406 123.148 31.076C123.357 30.742 123.637 30.4804 123.987 30.2912C124.337 30.102 124.724 29.9612 125.146 29.8686C125.573 29.772 126.002 29.6955 126.432 29.6392C126.996 29.5668 127.452 29.5124 127.803 29.4762C128.157 29.436 128.414 29.3696 128.575 29.277C128.74 29.1844 128.823 29.0234 128.823 28.794V28.7457C128.823 28.1501 128.66 27.6873 128.334 27.3572C128.012 27.0272 127.523 26.8622 126.867 26.8622C126.187 26.8622 125.653 27.0111 125.267 27.3089C124.881 27.6068 124.609 27.9247 124.452 28.2628L123.1 27.7798C123.341 27.2164 123.663 26.7777 124.066 26.4638C124.472 26.1458 124.915 25.9245 125.394 25.7997C125.877 25.6709 126.352 25.6065 126.819 25.6065C127.116 25.6065 127.458 25.6428 127.845 25.7152C128.235 25.7836 128.612 25.9265 128.974 26.1438C129.34 26.3612 129.644 26.6892 129.885 27.1278C130.127 27.5665 130.248 28.1541 130.248 28.8906V35H128.823V33.7443H128.75C128.654 33.9455 128.493 34.1609 128.267 34.3903C128.042 34.6197 127.742 34.8149 127.368 34.9759C126.994 35.1368 126.537 35.2173 125.998 35.2173ZM126.215 33.9375C126.778 33.9375 127.253 33.8268 127.64 33.6055C128.03 33.3841 128.324 33.0984 128.521 32.7482C128.722 32.3981 128.823 32.0298 128.823 31.6435V30.3395C128.762 30.4119 128.63 30.4783 128.424 30.5387C128.223 30.5951 127.99 30.6454 127.724 30.6896C127.462 30.7299 127.207 30.7661 126.957 30.7983C126.712 30.8265 126.513 30.8506 126.36 30.8707C125.989 30.919 125.643 30.9975 125.321 31.1062C125.003 31.2108 124.746 31.3698 124.549 31.5831C124.355 31.7924 124.259 32.0781 124.259 32.4403C124.259 32.9354 124.442 33.3097 124.808 33.5632C125.179 33.8127 125.647 33.9375 126.215 33.9375ZM136.591 38.6705C135.903 38.6705 135.311 38.5819 134.816 38.4048C134.321 38.2318 133.908 38.0024 133.578 37.7166C133.252 37.4349 132.993 37.133 132.8 36.8111L133.935 36.0142C134.063 36.1832 134.226 36.3764 134.424 36.5938C134.621 36.8151 134.89 37.0063 135.233 37.1673C135.579 37.3323 136.031 37.4148 136.591 37.4148C137.339 37.4148 137.957 37.2337 138.444 36.8714C138.931 36.5092 139.175 35.9418 139.175 35.169V33.2855H139.054C138.949 33.4545 138.8 33.6638 138.607 33.9134C138.418 34.1589 138.144 34.3782 137.786 34.5714C137.432 34.7605 136.953 34.8551 136.349 34.8551C135.601 34.8551 134.929 34.678 134.333 34.3239C133.741 33.9697 133.273 33.4545 132.926 32.7784C132.584 32.1023 132.413 31.2812 132.413 30.3153C132.413 29.3655 132.58 28.5385 132.914 27.8342C133.248 27.1258 133.713 26.5785 134.309 26.1921C134.905 25.8017 135.593 25.6065 136.373 25.6065C136.977 25.6065 137.456 25.7071 137.81 25.9084C138.168 26.1056 138.442 26.331 138.631 26.5845C138.824 26.834 138.973 27.0393 139.078 27.2003H139.223V25.7273H140.599V35.2656C140.599 36.0625 140.418 36.7105 140.056 37.2095C139.698 37.7126 139.215 38.0808 138.607 38.3143C138.003 38.5517 137.331 38.6705 136.591 38.6705ZM136.543 33.5753C137.114 33.5753 137.597 33.4445 137.991 33.1829C138.386 32.9213 138.686 32.545 138.891 32.054C139.096 31.563 139.199 30.9754 139.199 30.2912C139.199 29.6231 139.098 29.0335 138.897 28.5224C138.696 28.0112 138.398 27.6108 138.003 27.321C137.609 27.0312 137.122 26.8864 136.543 26.8864C135.939 26.8864 135.436 27.0393 135.033 27.3452C134.635 27.651 134.335 28.0616 134.134 28.5767C133.937 29.0919 133.838 29.6634 133.838 30.2912C133.838 30.9351 133.939 31.5046 134.14 31.9996C134.345 32.4906 134.647 32.877 135.045 33.1587C135.448 33.4364 135.947 33.5753 136.543 33.5753ZM147.095 35.1932C146.202 35.1932 145.431 34.996 144.783 34.6016C144.139 34.2031 143.642 33.6477 143.292 32.9354C142.946 32.219 142.773 31.3859 142.773 30.4361C142.773 29.4863 142.946 28.6491 143.292 27.9247C143.642 27.1963 144.129 26.6288 144.753 26.2223C145.381 25.8118 146.113 25.6065 146.95 25.6065C147.433 25.6065 147.91 25.687 148.381 25.848C148.852 26.009 149.28 26.2706 149.667 26.6328C150.053 26.991 150.361 27.4659 150.59 28.0575C150.82 28.6491 150.935 29.3776 150.935 30.2429V30.8466H143.787V29.6151H149.486C149.486 29.0919 149.381 28.625 149.172 28.2145C148.967 27.804 148.673 27.48 148.29 27.2425C147.912 27.0051 147.465 26.8864 146.95 26.8864C146.383 26.8864 145.892 27.0272 145.477 27.3089C145.067 27.5866 144.751 27.9489 144.529 28.3956C144.308 28.8423 144.197 29.3213 144.197 29.8324V30.6534C144.197 31.3537 144.318 31.9473 144.56 32.4343C144.805 32.9173 145.145 33.2855 145.58 33.5391C146.014 33.7886 146.52 33.9134 147.095 33.9134C147.469 33.9134 147.807 33.861 148.109 33.7564C148.415 33.6477 148.679 33.4867 148.9 33.2734C149.121 33.0561 149.293 32.7865 149.413 32.4645L150.79 32.8509C150.645 33.3177 150.401 33.7282 150.059 34.0824C149.717 34.4325 149.295 34.7062 148.791 34.9034C148.288 35.0966 147.723 35.1932 147.095 35.1932ZM153.102 35V25.7273H154.478V27.1761H154.599C154.792 26.6811 155.104 26.2968 155.535 26.0231C155.965 25.7454 156.483 25.6065 157.086 25.6065C157.698 25.6065 158.207 25.7454 158.614 26.0231C159.024 26.2968 159.344 26.6811 159.573 27.1761H159.67C159.907 26.6972 160.264 26.3169 160.739 26.0352C161.213 25.7494 161.783 25.6065 162.447 25.6065C163.276 25.6065 163.954 25.8661 164.481 26.3853C165.009 26.9004 165.272 27.7034 165.272 28.794V35H163.848V28.794C163.848 28.1098 163.66 27.6209 163.286 27.3271C162.912 27.0333 162.471 26.8864 161.964 26.8864C161.312 26.8864 160.807 27.0836 160.449 27.478C160.091 27.8684 159.911 28.3634 159.911 28.9631V35H158.463V28.6491C158.463 28.1219 158.292 27.6973 157.949 27.3754C157.607 27.0494 157.167 26.8864 156.627 26.8864C156.257 26.8864 155.911 26.985 155.589 27.1822C155.271 27.3794 155.014 27.6531 154.816 28.0032C154.623 28.3493 154.527 28.7498 154.527 29.2045V35H153.102ZM171.765 35.1932C170.872 35.1932 170.101 34.996 169.453 34.6016C168.809 34.2031 168.312 33.6477 167.962 32.9354C167.616 32.219 167.443 31.3859 167.443 30.4361C167.443 29.4863 167.616 28.6491 167.962 27.9247C168.312 27.1963 168.799 26.6288 169.423 26.2223C170.051 25.8118 170.783 25.6065 171.62 25.6065C172.103 25.6065 172.58 25.687 173.051 25.848C173.522 26.009 173.95 26.2706 174.337 26.6328C174.723 26.991 175.031 27.4659 175.26 28.0575C175.49 28.6491 175.604 29.3776 175.604 30.2429V30.8466H168.457V29.6151H174.156C174.156 29.0919 174.051 28.625 173.842 28.2145C173.636 27.804 173.343 27.48 172.96 27.2425C172.582 27.0051 172.135 26.8864 171.62 26.8864C171.053 26.8864 170.562 27.0272 170.147 27.3089C169.737 27.5866 169.421 27.9489 169.199 28.3956C168.978 28.8423 168.867 29.3213 168.867 29.8324V30.6534C168.867 31.3537 168.988 31.9473 169.229 32.4343C169.475 32.9173 169.815 33.2855 170.25 33.5391C170.684 33.7886 171.189 33.9134 171.765 33.9134C172.139 33.9134 172.477 33.861 172.779 33.7564C173.085 33.6477 173.349 33.4867 173.57 33.2734C173.791 33.0561 173.962 32.7865 174.083 32.4645L175.46 32.8509C175.315 33.3177 175.071 33.7282 174.729 34.0824C174.387 34.4325 173.964 34.7062 173.461 34.9034C172.958 35.0966 172.393 35.1932 171.765 35.1932ZM179.196 29.4219V35H177.772V25.7273H179.148V27.1761H179.269C179.486 26.7053 179.816 26.3269 180.259 26.0412C180.702 25.7514 181.273 25.6065 181.973 25.6065C182.601 25.6065 183.151 25.7353 183.622 25.9929C184.092 26.2464 184.459 26.6328 184.72 27.152C184.982 27.6671 185.113 28.3191 185.113 29.108V35H183.688V29.2045C183.688 28.4761 183.499 27.9086 183.12 27.5021C182.742 27.0916 182.223 26.8864 181.563 26.8864C181.108 26.8864 180.702 26.985 180.343 27.1822C179.989 27.3794 179.71 27.6671 179.504 28.0455C179.299 28.4238 179.196 28.8826 179.196 29.4219ZM191.749 25.7273V26.9347H186.943V25.7273H191.749ZM188.344 23.5057H189.769V32.3438C189.769 32.7462 189.827 33.0481 189.944 33.2493C190.064 33.4465 190.217 33.5793 190.403 33.6477C190.592 33.7121 190.791 33.7443 191 33.7443C191.157 33.7443 191.286 33.7363 191.387 33.7202C191.487 33.7 191.568 33.6839 191.628 33.6719L191.918 34.9517C191.821 34.9879 191.686 35.0241 191.513 35.0604C191.34 35.1006 191.121 35.1207 190.855 35.1207C190.453 35.1207 190.058 35.0342 189.672 34.8612C189.29 34.6881 188.972 34.4245 188.718 34.0703C188.469 33.7161 188.344 33.2694 188.344 32.7301V23.5057ZM202.706 25.7273V26.9347H197.9V25.7273H202.706ZM199.301 23.5057H200.726V32.3438C200.726 32.7462 200.784 33.0481 200.901 33.2493C201.021 33.4465 201.174 33.5793 201.36 33.6477C201.549 33.7121 201.748 33.7443 201.957 33.7443C202.114 33.7443 202.243 33.7363 202.344 33.7202C202.444 33.7 202.525 33.6839 202.585 33.6719L202.875 34.9517C202.778 34.9879 202.643 35.0241 202.47 35.0604C202.297 35.1006 202.078 35.1207 201.812 35.1207C201.41 35.1207 201.015 35.0342 200.629 34.8612C200.247 34.6881 199.929 34.4245 199.675 34.0703C199.426 33.7161 199.301 33.2694 199.301 32.7301V23.5057ZM206.473 29.4219V35H205.048V22.6364H206.473V27.1761H206.594C206.811 26.6972 207.137 26.3169 207.572 26.0352C208.01 25.7494 208.594 25.6065 209.322 25.6065C209.954 25.6065 210.508 25.7333 210.982 25.9869C211.457 26.2364 211.826 26.6207 212.087 27.1399C212.353 27.6551 212.486 28.3111 212.486 29.108V35H211.061V29.2045C211.061 28.468 210.87 27.8986 210.487 27.4961C210.109 27.0896 209.584 26.8864 208.912 26.8864C208.445 26.8864 208.026 26.985 207.656 27.1822C207.29 27.3794 207 27.6671 206.787 28.0455C206.577 28.4238 206.473 28.8826 206.473 29.4219ZM218.98 35.1932C218.086 35.1932 217.316 34.996 216.668 34.6016C216.024 34.2031 215.527 33.6477 215.177 32.9354C214.83 32.219 214.657 31.3859 214.657 30.4361C214.657 29.4863 214.83 28.6491 215.177 27.9247C215.527 27.1963 216.014 26.6288 216.638 26.2223C217.265 25.8118 217.998 25.6065 218.835 25.6065C219.318 25.6065 219.795 25.687 220.266 25.848C220.737 26.009 221.165 26.2706 221.552 26.6328C221.938 26.991 222.246 27.4659 222.475 28.0575C222.705 28.6491 222.819 29.3776 222.819 30.2429V30.8466H215.672V29.6151H221.37C221.37 29.0919 221.266 28.625 221.057 28.2145C220.851 27.804 220.557 27.48 220.175 27.2425C219.797 27.0051 219.35 26.8864 218.835 26.8864C218.267 26.8864 217.776 27.0272 217.362 27.3089C216.951 27.5866 216.636 27.9489 216.414 28.3956C216.193 28.8423 216.082 29.3213 216.082 29.8324V30.6534C216.082 31.3537 216.203 31.9473 216.444 32.4343C216.69 32.9173 217.03 33.2855 217.465 33.5391C217.899 33.7886 218.404 33.9134 218.98 33.9134C219.354 33.9134 219.692 33.861 219.994 33.7564C220.3 33.6477 220.564 33.4867 220.785 33.2734C221.006 33.0561 221.177 32.7865 221.298 32.4645L222.674 32.8509C222.53 33.3177 222.286 33.7282 221.944 34.0824C221.602 34.4325 221.179 34.7062 220.676 34.9034C220.173 35.0966 219.608 35.1932 218.98 35.1932ZM116.971 56V43.6364H121.148C122.118 43.6364 122.911 43.8114 123.527 44.1616C124.147 44.5077 124.605 44.9766 124.903 45.5682C125.201 46.1598 125.35 46.8198 125.35 47.5483C125.35 48.2768 125.201 48.9388 124.903 49.5344C124.61 50.1301 124.155 50.605 123.539 50.9592C122.923 51.3093 122.134 51.4844 121.172 51.4844H118.178V50.1562H121.124C121.788 50.1562 122.322 50.0415 122.724 49.8121C123.126 49.5827 123.418 49.2728 123.599 48.8825C123.784 48.488 123.877 48.0433 123.877 47.5483C123.877 47.0533 123.784 46.6106 123.599 46.2202C123.418 45.8298 123.124 45.5239 122.718 45.3026C122.311 45.0772 121.772 44.9645 121.1 44.9645H118.468V56H116.971ZM128.993 50.4219V56H127.569V43.6364H128.993V48.1761H129.114C129.331 47.6972 129.657 47.3169 130.092 47.0352C130.531 46.7494 131.114 46.6065 131.843 46.6065C132.475 46.6065 133.028 46.7333 133.503 46.9869C133.978 47.2364 134.346 47.6207 134.608 48.1399C134.873 48.6551 135.006 49.3111 135.006 50.108V56H133.581V50.2045C133.581 49.468 133.39 48.8986 133.008 48.4961C132.63 48.0896 132.104 47.8864 131.432 47.8864C130.965 47.8864 130.547 47.985 130.177 48.1822C129.81 48.3794 129.521 48.6671 129.307 49.0455C129.098 49.4238 128.993 49.8826 128.993 50.4219ZM140.341 56.2173C139.754 56.2173 139.22 56.1067 138.741 55.8853C138.263 55.6599 137.882 55.3359 137.6 54.9134C137.319 54.4867 137.178 53.9716 137.178 53.3679C137.178 52.8366 137.283 52.406 137.492 52.076C137.701 51.742 137.981 51.4804 138.331 51.2912C138.681 51.102 139.067 50.9612 139.49 50.8686C139.917 50.772 140.345 50.6955 140.776 50.6392C141.339 50.5668 141.796 50.5124 142.146 50.4762C142.5 50.436 142.758 50.3696 142.919 50.277C143.084 50.1844 143.167 50.0234 143.167 49.794V49.7457C143.167 49.1501 143.004 48.6873 142.678 48.3572C142.356 48.0272 141.867 47.8622 141.211 47.8622C140.53 47.8622 139.997 48.0111 139.611 48.3089C139.224 48.6068 138.953 48.9247 138.796 49.2628L137.444 48.7798C137.685 48.2164 138.007 47.7777 138.409 47.4638C138.816 47.1458 139.259 46.9245 139.738 46.7997C140.221 46.6709 140.695 46.6065 141.162 46.6065C141.46 46.6065 141.802 46.6428 142.189 46.7152C142.579 46.7836 142.955 46.9265 143.317 47.1438C143.684 47.3612 143.988 47.6892 144.229 48.1278C144.471 48.5665 144.591 49.1541 144.591 49.8906V56H143.167V54.7443H143.094C142.998 54.9455 142.837 55.1609 142.611 55.3903C142.386 55.6197 142.086 55.8149 141.712 55.9759C141.337 56.1368 140.881 56.2173 140.341 56.2173ZM140.559 54.9375C141.122 54.9375 141.597 54.8268 141.983 54.6055C142.374 54.3841 142.667 54.0984 142.865 53.7482C143.066 53.3981 143.167 53.0298 143.167 52.6435V51.3395C143.106 51.4119 142.973 51.4783 142.768 51.5387C142.567 51.5951 142.333 51.6454 142.068 51.6896C141.806 51.7299 141.551 51.7661 141.301 51.7983C141.056 51.8265 140.856 51.8506 140.703 51.8707C140.333 51.919 139.987 51.9975 139.665 52.1062C139.347 52.2108 139.09 52.3698 138.892 52.5831C138.699 52.7924 138.603 53.0781 138.603 53.4403C138.603 53.9354 138.786 54.3097 139.152 54.5632C139.522 54.8127 139.991 54.9375 140.559 54.9375ZM147.192 56V46.7273H148.568V48.1278H148.665C148.834 47.669 149.14 47.2968 149.582 47.011C150.025 46.7253 150.524 46.5824 151.079 46.5824C151.184 46.5824 151.315 46.5844 151.472 46.5884C151.629 46.5924 151.748 46.5985 151.828 46.6065V48.0554C151.78 48.0433 151.669 48.0252 151.496 48.0011C151.327 47.9729 151.148 47.9588 150.959 47.9588C150.508 47.9588 150.105 48.0534 149.751 48.2425C149.401 48.4277 149.123 48.6853 148.918 49.0153C148.717 49.3413 148.616 49.7135 148.616 50.1321V56H147.192ZM153.517 56V46.7273H154.893V48.1761H155.014C155.207 47.6811 155.519 47.2968 155.95 47.0231C156.38 46.7454 156.898 46.6065 157.501 46.6065C158.113 46.6065 158.622 46.7454 159.029 47.0231C159.439 47.2968 159.759 47.6811 159.988 48.1761H160.085C160.323 47.6972 160.679 47.3169 161.154 47.0352C161.628 46.7494 162.198 46.6065 162.862 46.6065C163.691 46.6065 164.369 46.8661 164.896 47.3853C165.424 47.9004 165.687 48.7034 165.687 49.794V56H164.263V49.794C164.263 49.1098 164.075 48.6209 163.701 48.3271C163.327 48.0333 162.886 47.8864 162.379 47.8864C161.727 47.8864 161.222 48.0836 160.864 48.478C160.506 48.8684 160.327 49.3634 160.327 49.9631V56H158.878V49.6491C158.878 49.1219 158.707 48.6973 158.365 48.3754C158.022 48.0494 157.582 47.8864 157.042 47.8864C156.672 47.8864 156.326 47.985 156.004 48.1822C155.686 48.3794 155.429 48.6531 155.231 49.0032C155.038 49.3493 154.942 49.7498 154.942 50.2045V56H153.517ZM171.021 56.2173C170.433 56.2173 169.9 56.1067 169.421 55.8853C168.942 55.6599 168.562 55.3359 168.28 54.9134C167.998 54.4867 167.858 53.9716 167.858 53.3679C167.858 52.8366 167.962 52.406 168.172 52.076C168.381 51.742 168.661 51.4804 169.011 51.2912C169.361 51.102 169.747 50.9612 170.17 50.8686C170.596 50.772 171.025 50.6955 171.456 50.6392C172.019 50.5668 172.476 50.5124 172.826 50.4762C173.18 50.436 173.438 50.3696 173.599 50.277C173.764 50.1844 173.846 50.0234 173.846 49.794V49.7457C173.846 49.1501 173.683 48.6873 173.357 48.3572C173.035 48.0272 172.546 47.8622 171.89 47.8622C171.21 47.8622 170.677 48.0111 170.29 48.3089C169.904 48.6068 169.632 48.9247 169.475 49.2628L168.123 48.7798C168.365 48.2164 168.687 47.7777 169.089 47.4638C169.496 47.1458 169.938 46.9245 170.417 46.7997C170.9 46.6709 171.375 46.6065 171.842 46.6065C172.14 46.6065 172.482 46.6428 172.868 46.7152C173.259 46.7836 173.635 46.9265 173.997 47.1438C174.363 47.3612 174.667 47.6892 174.909 48.1278C175.15 48.5665 175.271 49.1541 175.271 49.8906V56H173.846V54.7443H173.774C173.677 54.9455 173.516 55.1609 173.291 55.3903C173.065 55.6197 172.766 55.8149 172.391 55.9759C172.017 56.1368 171.56 56.2173 171.021 56.2173ZM171.238 54.9375C171.802 54.9375 172.277 54.8268 172.663 54.6055C173.053 54.3841 173.347 54.0984 173.544 53.7482C173.746 53.3981 173.846 53.0298 173.846 52.6435V51.3395C173.786 51.4119 173.653 51.4783 173.448 51.5387C173.247 51.5951 173.013 51.6454 172.748 51.6896C172.486 51.7299 172.23 51.7661 171.981 51.7983C171.735 51.8265 171.536 51.8506 171.383 51.8707C171.013 51.919 170.667 51.9975 170.345 52.1062C170.027 52.2108 169.769 52.3698 169.572 52.5831C169.379 52.7924 169.282 53.0781 169.282 53.4403C169.282 53.9354 169.465 54.3097 169.832 54.5632C170.202 54.8127 170.671 54.9375 171.238 54.9375ZM181.638 56.1932C180.769 56.1932 180.021 55.9879 179.393 55.5774C178.765 55.1669 178.282 54.6014 177.944 53.881C177.606 53.1606 177.437 52.3376 177.437 51.4119C177.437 50.4702 177.61 49.6391 177.956 48.9187C178.306 48.1942 178.793 47.6288 179.417 47.2223C180.045 46.8118 180.777 46.6065 181.614 46.6065C182.266 46.6065 182.854 46.7273 183.377 46.9688C183.9 47.2102 184.329 47.5483 184.663 47.983C184.997 48.4176 185.204 48.9247 185.285 49.5043H183.86C183.751 49.0817 183.51 48.7074 183.136 48.3814C182.765 48.0514 182.266 47.8864 181.638 47.8864C181.083 47.8864 180.596 48.0312 180.177 48.321C179.763 48.6068 179.439 49.0112 179.206 49.5344C178.976 50.0536 178.861 50.6634 178.861 51.3636C178.861 52.08 178.974 52.7038 179.199 53.2351C179.429 53.7663 179.751 54.1789 180.165 54.4727C180.584 54.7665 181.075 54.9134 181.638 54.9134C182.009 54.9134 182.345 54.849 182.647 54.7202C182.948 54.5914 183.204 54.4062 183.413 54.1648C183.623 53.9233 183.771 53.6335 183.86 53.2955H185.285C185.204 53.8428 185.005 54.3358 184.687 54.7745C184.373 55.2092 183.957 55.5553 183.437 55.8129C182.922 56.0664 182.323 56.1932 181.638 56.1932ZM188.285 59.4773C188.044 59.4773 187.828 59.4571 187.639 59.4169C187.45 59.3807 187.319 59.3445 187.247 59.3082L187.609 58.0526C187.955 58.1411 188.261 58.1733 188.527 58.1491C188.792 58.125 189.028 58.0063 189.233 57.793C189.442 57.5837 189.633 57.2436 189.806 56.7727L190.072 56.0483L186.643 46.7273H188.188L190.748 54.1165H190.845L193.404 46.7273H194.95L191.014 57.3523C190.837 57.8312 190.617 58.2276 190.356 58.5415C190.094 58.8595 189.79 59.0949 189.444 59.2479C189.102 59.4008 188.716 59.4773 188.285 59.4773Z" fill="#2C5F2D"/>
<path d="M61 20V37" stroke="#2C5F2D"/>
<path d="M53 37L53 20" stroke="#2C5F2D"/>
<path d="M53 20.5H60.8" stroke="#2C5F2D"/>
<path d="M53.5 37.5H36.5" stroke="#2C5F2D"/>
<path d="M37 37.5V45.3" stroke="#2C5F2D"/>
<path d="M78 37V44.8" stroke="#2C5F2D"/>
<path d="M36.5 45.5H53.5" stroke="#2C5F2D"/>
<path d="M53.5 45.5V62.5" stroke="#2C5F2D"/>
<path d="M53.5 62H61.3" stroke="#2C5F2D"/>
<path d="M61 45V62" stroke="#2C5F2D"/>
<path d="M61 45H78" stroke="#2C5F2D"/>
<path d="M61 37H78" stroke="#2C5F2D"/>
</svg>
